<?xml version="1.0" encoding="UTF-8"?><!DOCTYPE svg PUBLIC "-//W3C//DTD SVG 1.1//EN" "http://www.w3.org/Graphics/SVG/1.1/DTD/svg11.dtd"><svg xmlns="http://www.w3.org/2000/svg" xmlns:xlink="http://www.w3.org/1999/xlink"><symbol id="icon-close"><path fill-rule="evenodd" clip-rule="evenodd" d="M1.707.293A1 1 0 00.293 1.707l9.294 9.295-9.294 9.294a1 1 0 101.414 1.414l9.295-9.294 9.294 9.294a1 1 0 101.414-1.414l-9.294-9.294 9.294-9.295A1 1 0 1020.296.293l-9.294 9.294L1.707.293z" fill="#393939"/></symbol><symbol id="icon-email"><path d="M18.5.5h-16c-.53 0-1.04.198-1.414.55A1.818 1.818 0 00.5 2.374v11.25c0 .497.21.974.586 1.326.375.351.884.549 1.414.549h16c.53 0 1.04-.197 1.414-.55.375-.35.586-.828.586-1.325V2.375c0-.497-.21-.974-.586-1.326A2.07 2.07 0 0018.5.5zm0 3.971l-8 4.577-8-4.577V2.375h16v2.096z" fill="#fff"/></symbol><symbol id="icon-fb"><path fill-rule="evenodd" clip-rule="evenodd" d="M12.76 17.75v-6.777h2.274l.34-2.64h-2.616V6.645c0-.764.213-1.286 1.31-1.286h1.399V2.997a18.717 18.717 0 00-2.04-.104c-2.015 0-3.395 1.23-3.395 3.49v1.95H7.75v2.64h2.281v6.777H1.716a.966.966 0 01-.966-.966V1.216c0-.534.432-.966.966-.966h15.568c.534 0 .966.432.966.966v15.568a.966.966 0 01-.966.966h-4.525z" fill="#fff"/></symbol><symbol id="icon-inst"><path d="M9.498 6.082A2.924 2.924 0 006.58 9a2.924 2.924 0 002.918 2.918A2.924 2.924 0 0012.416 9a2.924 2.924 0 00-2.918-2.918zM18.249 9c0-1.208.011-2.406-.057-3.612-.068-1.4-.387-2.644-1.412-3.669C15.754.693 14.512.375 13.112.308 11.903.24 10.706.25 9.5.25 8.292.25 7.094.24 5.888.308c-1.4.067-2.644.387-3.669 1.411C1.193 2.746.875 3.987.808 5.39.74 6.595.75 7.793.75 9c0 1.206-.011 2.406.057 3.612.067 1.4.387 2.644 1.411 3.668 1.027 1.027 2.268 1.345 3.67 1.412 1.207.068 2.405.057 3.61.057 1.21 0 2.406.011 3.613-.057 1.4-.067 2.644-.387 3.668-1.412 1.027-1.026 1.344-2.267 1.412-3.668.07-1.206.057-2.404.057-3.612zm-8.751 4.49A4.483 4.483 0 015.008 9a4.483 4.483 0 014.49-4.49A4.483 4.483 0 0113.988 9a4.483 4.483 0 01-4.49 4.49zm4.673-8.115a1.047 1.047 0 110-2.097 1.047 1.047 0 01.402 2.018c-.128.052-.264.08-.402.079z" fill="#fff"/></symbol></svg>