<svg width="19" height="18" viewBox="0 0 19 18" fill="none" xmlns="http://www.w3.org/2000/svg">
<path d="M9.49765 6.08209C7.89097 6.08209 6.57979 7.39329 6.57979 9C6.57979 10.6067 7.89097 11.9179 9.49765 11.9179C11.1043 11.9179 12.4155 10.6067 12.4155 9C12.4155 7.39329 11.1043 6.08209 9.49765 6.08209ZM18.249 9C18.249 7.79168 18.26 6.59431 18.1921 5.38819C18.1243 3.98724 17.8047 2.7439 16.7802 1.71946C15.7536 0.692825 14.5125 0.375423 13.1116 0.307565C11.9033 0.239706 10.7059 0.250651 9.49984 0.250651C8.29154 0.250651 7.09419 0.239706 5.88809 0.307565C4.48717 0.375423 3.24385 0.695014 2.21943 1.71946C1.19282 2.74609 0.875421 3.98724 0.807563 5.38819C0.739706 6.5965 0.750651 7.79387 0.750651 9C0.750651 10.2061 0.739706 11.4057 0.807563 12.6118C0.875421 14.0128 1.19501 15.2561 2.21943 16.2805C3.24604 17.3072 4.48717 17.6246 5.88809 17.6924C7.09638 17.7603 8.29373 17.7493 9.49984 17.7493C10.7081 17.7493 11.9055 17.7603 13.1116 17.6924C14.5125 17.6246 15.7558 17.305 16.7802 16.2805C17.8069 15.2539 18.1243 14.0128 18.1921 12.6118C18.2622 11.4057 18.249 10.2083 18.249 9ZM9.49765 13.4896C7.0132 13.4896 5.00814 11.4845 5.00814 9C5.00814 6.51551 7.0132 4.5104 9.49765 4.5104C11.9821 4.5104 13.9872 6.51551 13.9872 9C13.9872 11.4845 11.9821 13.4896 9.49765 13.4896ZM14.171 5.37505C13.591 5.37505 13.1225 4.90661 13.1225 4.32653C13.1225 3.74645 13.591 3.27801 14.171 3.27801C14.7511 3.27801 15.2195 3.74645 15.2195 4.32653C15.2197 4.46427 15.1927 4.6007 15.1401 4.72799C15.0874 4.85528 15.0102 4.97093 14.9128 5.06833C14.8154 5.16573 14.6998 5.24296 14.5725 5.29559C14.4452 5.34822 14.3088 5.37522 14.171 5.37505Z" fill="white"/>
</svg>
