<svg width="19" height="18" viewBox="0 0 19 18" fill="none" xmlns="http://www.w3.org/2000/svg">
<path fill-rule="evenodd" clip-rule="evenodd" d="M12.7594 17.75V10.9731H15.0344L15.3748 8.33238H12.7585V6.64625C12.7585 5.8815 12.9711 5.36 14.0684 5.36H15.4666V2.9975C14.7895 2.92544 14.1089 2.89039 13.4279 2.8925C11.4119 2.8925 10.032 4.12363 10.032 6.38375V8.33238H7.75V10.9731H10.0311V17.75H1.716C1.18225 17.75 0.75 17.3177 0.75 16.784V1.216C0.75 0.68225 1.18225 0.25 1.716 0.25H17.284C17.8177 0.25 18.25 0.68225 18.25 1.216V16.784C18.25 17.3177 17.8177 17.75 17.284 17.75H12.7594Z" fill="white"/>
</svg>
