<svg width="21" height="16" viewBox="0 0 21 16" fill="none" xmlns="http://www.w3.org/2000/svg">
<path d="M18.5 0.5H2.5C1.96957 0.5 1.46086 0.697544 1.08579 1.04917C0.710714 1.40081 0.5 1.87772 0.5 2.375V13.625C0.5 14.1223 0.710714 14.5992 1.08579 14.9508C1.46086 15.3025 1.96957 15.5 2.5 15.5H18.5C19.0304 15.5 19.5391 15.3025 19.9142 14.9508C20.2893 14.5992 20.5 14.1223 20.5 13.625V2.375C20.5 1.87772 20.2893 1.40081 19.9142 1.04917C19.5391 0.697544 19.0304 0.5 18.5 0.5ZM18.5 4.47125L10.5 9.04813L2.5 4.47125V2.375H18.5V4.47125Z" fill="white"/>
</svg>
