<svg width="23" height="23" viewBox="0 0 23 23" fill="none" xmlns="http://www.w3.org/2000/svg">
<path fill-rule="evenodd" clip-rule="evenodd" d="M1.70711 0.292893C1.31658 -0.097631 0.683418 -0.097631 0.292893 0.292893C-0.097631 0.683417 -0.097631 1.31658 0.292893 1.70711L9.58736 11.0016L0.292893 20.296C-0.0976312 20.6866 -0.097631 21.3197 0.292893 21.7102C0.683418 22.1008 1.31658 22.1008 1.70711 21.7102L11.0016 12.4158L20.296 21.7102C20.6866 22.1008 21.3197 22.1008 21.7102 21.7102C22.1008 21.3197 22.1008 20.6866 21.7102 20.296L12.4158 11.0016L21.7102 1.70711C22.1008 1.31658 22.1008 0.683418 21.7102 0.292894C21.3197 -0.0976301 20.6866 -0.097631 20.296 0.292894L11.0016 9.58736L1.70711 0.292893Z" fill="#393939"/>
</svg>
