<svg width="19" height="18" fill="none" xmlns="http://www.w3.org/2000/svg"><path d="M9.498 6.082A2.924 2.924 0 006.58 9a2.924 2.924 0 002.918 2.918A2.924 2.924 0 0012.416 9a2.924 2.924 0 00-2.918-2.918zM18.249 9c0-1.208.011-2.406-.057-3.612-.068-1.4-.387-2.644-1.412-3.669C15.754.693 14.512.375 13.112.308 11.903.24 10.706.25 9.5.25 8.292.25 7.094.24 5.888.308c-1.4.067-2.644.387-3.669 1.411C1.193 2.746.875 3.987.808 5.39.74 6.595.75 7.793.75 9c0 1.206-.011 2.406.057 3.612.067 1.4.387 2.644 1.411 3.668 1.027 1.027 2.268 1.345 3.67 1.412 1.207.068 2.405.057 3.61.057 1.21 0 2.406.011 3.613-.057 1.4-.067 2.644-.387 3.668-1.412 1.027-1.026 1.344-2.267 1.412-3.668.07-1.206.057-2.404.057-3.612zm-8.751 4.49A4.483 4.483 0 015.008 9a4.483 4.483 0 014.49-4.49A4.483 4.483 0 0113.988 9a4.483 4.483 0 01-4.49 4.49zm4.673-8.115a1.047 1.047 0 110-2.097 1.047 1.047 0 01.402 2.018c-.128.052-.264.08-.402.079z" fill="#fff"/></svg>